# xmcd
#
# Track frame offsets:
#	150
#	16692
#	31733
#	44200
#
# Disc length: 815 seconds
#
# Revision: 1
# Processed by: cddbd v1.5.2PL0 Copyright (c) Steve Scherf et al.
# Submitted via: audiograbber 1.82.00
#
DISCID=27032d04
DTITLE=Bobby Darren - Just You and I (Demo)
DYEAR=2000
DGENRE=Country
TTITLE0=Just You and I
TTITLE1=500 Miles Away From Home
TTITLE2=White Light'n
TTITLE3=Country Rosies
EXTD=Bobby Darren's 2000 original CD demo containing the hit song "Just You and
EXTD=I"
EXTT0=
EXTT1=
EXTT2=
EXTT3=
PLAYORDER=
